<?xml version="1.0" encoding="UTF-8"?>
<!DOCTYPE svg PUBLIC "-//W3C//DTD SVG 1.1//EN" "http://www.w3.org/Graphics/SVG/1.1/DTD/svg11.dtd">
<svg xmlns="http://www.w3.org/2000/svg" version="1.1" width="500px" height="500px" style="shape-rendering:geometricPrecision; text-rendering:geometricPrecision; image-rendering:optimizeQuality; fill-rule:evenodd; clip-rule:evenodd" xmlns:xlink="http://www.w3.org/1999/xlink">
<g><path style="opacity:1" fill="#192e66" d="M 265.5,82.5 C 269.9,84.1042 274.566,84.7709 279.5,84.5C 283.857,86.4189 288.524,87.4189 293.5,87.5C 296.152,87.4095 298.485,88.0762 300.5,89.5C 302.438,91.1628 304.772,91.8294 307.5,91.5C 312.029,93.1188 316.363,95.1188 320.5,97.5C 323.297,99.4926 325.964,101.493 328.5,103.5C 329.171,104.847 329.171,106.014 328.5,107C 330.443,106.695 332.443,106.695 334.5,107C 339.301,109.819 343.968,112.819 348.5,116C 350.154,116.608 351.821,117.108 353.5,117.5C 353.721,118.735 354.388,119.735 355.5,120.5C 354.271,121.281 352.938,121.781 351.5,122C 352.766,122.309 353.933,122.809 355,123.5C 355.333,123.167 355.667,122.833 356,122.5C 356.034,124.18 356.201,125.68 356.5,127C 362.807,129.473 368.14,133.306 372.5,138.5C 373.429,139.689 373.762,141.022 373.5,142.5C 374.675,142.281 375.675,142.614 376.5,143.5C 377.986,145.302 378.986,147.302 379.5,149.5C 382.022,150.011 384.355,151.011 386.5,152.5C 387.167,152.5 387.5,152.833 387.5,153.5C 387.845,156.198 389.178,158.198 391.5,159.5C 391.427,161.027 392.094,162.027 393.5,162.5C 394.752,164.001 395.752,165.668 396.5,167.5C 396.917,170.079 396.25,172.246 394.5,174C 395.76,175.113 396.927,175.28 398,174.5C 399.598,180.05 401.431,185.55 403.5,191C 401.579,192.241 401.246,193.741 402.5,195.5C 403.167,194.5 403.833,193.5 404.5,192.5C 405.642,193.826 406.976,194.826 408.5,195.5C 408.881,202.1 409.881,208.6 411.5,215C 411.167,215.833 410.833,216.667 410.5,217.5C 403.363,217.484 396.197,217.484 389,217.5C 388.047,215.408 386.714,215.075 385,216.5C 383.266,215.751 381.433,215.251 379.5,215C 377.294,212.809 374.628,211.309 371.5,210.5C 376.643,210.214 381.143,210.214 385,210.5C 386.399,209.773 387.899,209.273 389.5,209C 391.329,204.16 389.995,202.827 385.5,205C 386.451,205.718 386.617,206.551 386,207.5C 384.416,206.139 382.582,205.472 380.5,205.5C 380.366,203.708 380.699,202.042 381.5,200.5C 384.254,200.216 386.92,199.549 389.5,198.5C 390.738,196.363 392.571,195.029 395,194.5C 395.483,193.552 395.649,192.552 395.5,191.5C 392.749,191.528 390.415,192.528 388.5,194.5C 386.263,193.731 384.263,192.564 382.5,191C 380.467,184.569 376.967,179.069 372,174.5C 371.773,169.105 368.94,166.105 363.5,165.5C 358.528,160.193 353.528,154.86 348.5,149.5C 347.738,147.738 346.404,146.738 344.5,146.5C 345.028,145.279 345.695,144.113 346.5,143C 344.5,142.667 342.5,142.333 340.5,142C 339.816,138.078 337.482,136.578 333.5,137.5C 333.449,135.43 334.115,133.597 335.5,132C 334.352,130.274 333.185,130.441 332,132.5C 330.87,131.886 329.537,131.886 328,132.5C 324.283,129.26 320.117,126.76 315.5,125C 313.527,124.505 311.527,124.338 309.5,124.5C 308.34,123.735 307.34,122.735 306.5,121.5C 302.086,120.257 297.753,118.757 293.5,117C 292.833,116.333 292.167,115.667 291.5,115C 287.176,114.418 282.843,113.918 278.5,113.5C 276.631,113.507 274.964,113.84 273.5,114.5C 269.395,113.891 265.395,113.225 261.5,112.5C 244.381,111.401 227.215,111.401 210,112.5C 206.346,116.381 201.846,118.714 196.5,119.5C 195.575,120.357 194.908,121.357 194.5,122.5C 193.791,123.404 192.791,123.737 191.5,123.5C 184.238,125.019 176.905,128.186 169.5,133C 168.207,133.49 166.873,133.657 165.5,133.5C 165.5,134.5 165.5,135.5 165.5,136.5C 162.339,137.976 159.005,138.976 155.5,139.5C 155.5,141.167 155.5,142.833 155.5,144.5C 154.209,145.778 152.209,146.445 149.5,146.5C 149.5,147.833 149.5,149.167 149.5,150.5C 147.807,153.19 145.473,155.19 142.5,156.5C 141.791,155.596 140.791,155.263 139.5,155.5C 139.254,158.47 137.588,159.803 134.5,159.5C 134.5,161.5 134.5,163.5 134.5,165.5C 128.844,174.138 123.177,182.805 117.5,191.5C 115.896,192.287 115.229,193.62 115.5,195.5C 115.068,196.71 114.401,197.71 113.5,198.5C 112.167,198.5 111.5,199.167 111.5,200.5C 109.124,201.726 107.624,203.726 107,206.5C 105.738,211.787 105.404,217.12 106,222.5C 106.7,225.549 107.533,228.882 108.5,232.5C 108.36,230.744 108.86,229.078 110,227.5C 111.42,229.422 113.253,230.755 115.5,231.5C 115.953,233.565 116.953,235.232 118.5,236.5C 119.588,245.162 119.588,253.829 118.5,262.5C 117.732,261.737 117.232,260.737 117,259.5C 116.506,261.134 116.34,262.801 116.5,264.5C 115.167,264.5 113.833,264.5 112.5,264.5C 112.616,267.91 110.95,269.244 107.5,268.5C 107.579,269.93 107.246,271.264 106.5,272.5C 105.007,273.141 104.007,274.141 103.5,275.5C 101.234,275.141 99.4007,275.808 98,277.5C 93.9222,277.072 89.4222,277.072 84.5,277.5C 83.791,276.596 82.791,276.263 81.5,276.5C 78.3511,276.585 75.6845,275.585 73.5,273.5C 73.0269,272.094 72.0269,271.427 70.5,271.5C 69.5,271.167 68.8333,270.5 68.5,269.5C 68.2024,266.735 67.2024,264.235 65.5,262C 67.7106,260.161 69.8773,260.328 72,262.5C 72.6924,261.975 73.1924,261.308 73.5,260.5C 70.6582,259.996 69.3249,258.329 69.5,255.5C 68.5,255.5 67.5,255.5 66.5,255.5C 65.6209,261.852 64.1209,261.852 62,255.5C 61.5005,249.509 61.3338,243.509 61.5,237.5C 64.1813,237.462 66.6813,238.129 69,239.5C 71.7735,239.102 72.6069,237.769 71.5,235.5C 70.4763,234.147 69.143,233.48 67.5,233.5C 68.8466,230.278 70.5132,227.111 72.5,224C 77.5724,222.376 82.5724,220.543 87.5,218.5C 88.3561,212.449 89.3561,206.449 90.5,200.5C 91.4731,198.052 91.8064,195.385 91.5,192.5C 94.2226,189.414 96.7226,186.08 99,182.5C 103.742,172.597 108.242,162.597 112.5,152.5C 114.796,151.267 116.13,149.267 116.5,146.5C 116.833,145.5 117.5,144.833 118.5,144.5C 119.906,144.027 120.573,143.027 120.5,141.5C 121.5,139.833 122.833,138.5 124.5,137.5C 127.5,135.167 130.167,132.5 132.5,129.5C 135.194,127.473 137.527,125.139 139.5,122.5C 140.585,120.413 142.251,119.08 144.5,118.5C 147.371,119.986 148.705,118.986 148.5,115.5C 151.187,115.336 153.854,115.503 156.5,116C 156.167,116.333 155.833,116.667 155.5,117C 156.127,119.343 157.127,121.51 158.5,123.5C 159.357,122.264 160.023,120.931 160.5,119.5C 156.799,111.75 159.466,106.916 168.5,105C 172.569,101.804 177.236,99.8036 182.5,99C 182.998,97.8419 183.831,97.0085 185,96.5C 193.615,93.2437 202.115,89.9104 210.5,86.5C 213.689,86.1417 216.689,85.475 219.5,84.5C 223.619,83.2621 227.953,82.4288 232.5,82C 243.674,81.1743 254.674,81.341 265.5,82.5 Z M 100.5,235.5 C 107.462,243.856 107.129,251.856 99.5,259.5C 98.8333,259.5 98.5,259.833 98.5,260.5C 94.9975,261.917 91.3309,262.584 87.5,262.5C 86.4863,261.326 85.153,260.66 83.5,260.5C 82.5,259.833 81.5,259.167 80.5,258.5C 79.8333,257.167 78.8333,256.167 77.5,255.5C 72.986,242.706 77.3193,235.039 90.5,232.5C 94.0866,232.893 97.4199,233.893 100.5,235.5 Z"/></g>
<g><path style="opacity:0.475" fill="#5a647c" d="M 265.5,82.5 C 270.414,82.3618 275.081,83.0285 279.5,84.5C 274.566,84.7709 269.9,84.1042 265.5,82.5 Z"/></g>
<g><path style="opacity:0.157" fill="#99a0b3" d="M 219.5,84.5 C 216.689,85.475 213.689,86.1417 210.5,86.5C 213.123,84.7345 216.123,84.0679 219.5,84.5 Z"/></g>
<g><path style="opacity:0.937" fill="#69708d" d="M 279.5,84.5 C 284.529,84.3804 289.196,85.3804 293.5,87.5C 288.524,87.4189 283.857,86.4189 279.5,84.5 Z"/></g>
<g><path style="opacity:0.29" fill="#7b889f" d="M 300.5,89.5 C 303.067,89.7215 305.401,90.3882 307.5,91.5C 304.772,91.8294 302.438,91.1628 300.5,89.5 Z"/></g>
<g><path style="opacity:0.949" fill="#6f7792" d="M 320.5,97.5 C 324.582,98.3764 328.249,100.043 331.5,102.5C 330.391,102.557 329.391,102.89 328.5,103.5C 325.964,101.493 323.297,99.4926 320.5,97.5 Z"/></g>
<g><path style="opacity:1" fill="#303c64" d="M 331.5,102.5 C 333.833,103.833 336.167,105.167 338.5,106.5C 339.035,108.446 340.368,109.446 342.5,109.5C 346.736,111.445 350.403,114.112 353.5,117.5C 351.821,117.108 350.154,116.608 348.5,116C 343.968,112.819 339.301,109.819 334.5,107C 332.443,106.695 330.443,106.695 328.5,107C 329.171,106.014 329.171,104.847 328.5,103.5C 329.391,102.89 330.391,102.557 331.5,102.5 Z"/></g>
<g><path style="opacity:0.482" fill="#8f98ae" d="M 338.5,106.5 C 340.23,107.026 341.564,108.026 342.5,109.5C 340.368,109.446 339.035,108.446 338.5,106.5 Z"/></g>
<g><path style="opacity:0.212" fill="#9c9eb2" d="M 159.5,107.5 C 159.027,108.906 158.027,109.573 156.5,109.5C 156.973,108.094 157.973,107.427 159.5,107.5 Z"/></g>
<g><path style="opacity:1" fill="#303c67" d="M 210.5,86.5 C 202.115,89.9104 193.615,93.2437 185,96.5C 183.831,97.0085 182.998,97.8419 182.5,99C 177.236,99.8036 172.569,101.804 168.5,105C 159.466,106.916 156.799,111.75 160.5,119.5C 160.023,120.931 159.357,122.264 158.5,123.5C 157.127,121.51 156.127,119.343 155.5,117C 155.833,116.667 156.167,116.333 156.5,116C 153.854,115.503 151.187,115.336 148.5,115.5C 148.705,118.986 147.371,119.986 144.5,118.5C 147.91,114.762 151.91,111.762 156.5,109.5C 158.027,109.573 159.027,108.906 159.5,107.5C 175.048,97.2001 192.048,90.2001 210.5,86.5 Z"/></g>
<g><path style="opacity:0.999" fill="#485176" d="M 261.5,112.5 C 238.373,110.932 216.04,114.266 194.5,122.5C 194.908,121.357 195.575,120.357 196.5,119.5C 201.846,118.714 206.346,116.381 210,112.5C 227.215,111.401 244.381,111.401 261.5,112.5 Z"/></g>
<g><path style="opacity:0.953" fill="#404a6f" d="M 273.5,114.5 C 274.964,113.84 276.631,113.507 278.5,113.5C 282.843,113.918 287.176,114.418 291.5,115C 292.167,115.667 292.833,116.333 293.5,117C 297.753,118.757 302.086,120.257 306.5,121.5C 307.34,122.735 308.34,123.735 309.5,124.5C 303.079,122.637 296.746,120.471 290.5,118C 284.914,116.383 279.247,115.216 273.5,114.5 Z"/></g>
<g><path style="opacity:1" fill="#333f6b" d="M 353.5,117.5 C 357.146,119.817 360.48,122.484 363.5,125.5C 363.5,127.5 364.5,128.5 366.5,128.5C 368.833,130.167 370.833,132.167 372.5,134.5C 372.427,136.027 373.094,137.027 374.5,137.5C 377.19,139.193 379.19,141.527 380.5,144.5C 381.08,146.749 382.413,148.415 384.5,149.5C 385.906,149.973 386.573,150.973 386.5,152.5C 384.355,151.011 382.022,150.011 379.5,149.5C 378.986,147.302 377.986,145.302 376.5,143.5C 375.675,142.614 374.675,142.281 373.5,142.5C 373.762,141.022 373.429,139.689 372.5,138.5C 368.14,133.306 362.807,129.473 356.5,127C 356.201,125.68 356.034,124.18 356,122.5C 355.667,122.833 355.333,123.167 355,123.5C 353.933,122.809 352.766,122.309 351.5,122C 352.938,121.781 354.271,121.281 355.5,120.5C 354.388,119.735 353.721,118.735 353.5,117.5 Z"/></g>
<g><path style="opacity:0.271" fill="#9297ac" d="M 139.5,122.5 C 137.527,125.139 135.194,127.473 132.5,129.5C 133.833,126.167 136.167,123.833 139.5,122.5 Z"/></g>
<g><path style="opacity:0.286" fill="#abb0bf" d="M 363.5,125.5 C 364.833,126.167 365.833,127.167 366.5,128.5C 364.5,128.5 363.5,127.5 363.5,125.5 Z"/></g>
<g><path style="opacity:0.247" fill="#9ea3b7" d="M 132.5,129.5 C 130.167,132.5 127.5,135.167 124.5,137.5C 126.167,133.833 128.833,131.167 132.5,129.5 Z"/></g>
<g><path style="opacity:1" fill="#333f69" d="M 309.5,124.5 C 311.527,124.338 313.527,124.505 315.5,125C 320.117,126.76 324.283,129.26 328,132.5C 329.537,131.886 330.87,131.886 332,132.5C 333.185,130.441 334.352,130.274 335.5,132C 334.115,133.597 333.449,135.43 333.5,137.5C 337.482,136.578 339.816,138.078 340.5,142C 342.5,142.333 344.5,142.667 346.5,143C 345.695,144.113 345.028,145.279 344.5,146.5C 342.091,145.299 340.091,143.633 338.5,141.5C 338.027,140.094 337.027,139.427 335.5,139.5C 333.668,138.752 332.001,137.752 330.5,136.5C 329.965,134.554 328.632,133.554 326.5,133.5C 320.594,130.716 314.927,127.716 309.5,124.5 Z"/></g>
<g><path style="opacity:0.106" fill="#a6abbd" d="M 326.5,133.5 C 328.632,133.554 329.965,134.554 330.5,136.5C 328.77,135.974 327.436,134.974 326.5,133.5 Z"/></g>
<g><path style="opacity:0.161" fill="#b3bbcd" d="M 372.5,134.5 C 373.906,134.973 374.573,135.973 374.5,137.5C 373.094,137.027 372.427,136.027 372.5,134.5 Z"/></g>
<g><path style="opacity:1" fill="#495177" d="M 191.5,123.5 C 176.244,130.466 162.244,139.466 149.5,150.5C 149.5,149.167 149.5,147.833 149.5,146.5C 152.209,146.445 154.209,145.778 155.5,144.5C 155.5,142.833 155.5,141.167 155.5,139.5C 159.005,138.976 162.339,137.976 165.5,136.5C 165.5,135.5 165.5,134.5 165.5,133.5C 166.873,133.657 168.207,133.49 169.5,133C 176.905,128.186 184.238,125.019 191.5,123.5 Z"/></g>
<g><path style="opacity:0.169" fill="#999fb7" d="M 335.5,139.5 C 337.027,139.427 338.027,140.094 338.5,141.5C 336.973,141.573 335.973,140.906 335.5,139.5 Z"/></g>
<g><path style="opacity:0.2" fill="#b2b6ca" d="M 120.5,141.5 C 120.573,143.027 119.906,144.027 118.5,144.5C 118.427,142.973 119.094,141.973 120.5,141.5 Z"/></g>
<g><path style="opacity:0.624" fill="#767d97" d="M 380.5,144.5 C 382.587,145.585 383.92,147.251 384.5,149.5C 382.413,148.415 381.08,146.749 380.5,144.5 Z"/></g>
<g><path style="opacity:0.263" fill="#939aac" d="M 344.5,146.5 C 346.404,146.738 347.738,147.738 348.5,149.5C 346.596,149.262 345.262,148.262 344.5,146.5 Z"/></g>
<g><path style="opacity:0.812" fill="#737a93" d="M 116.5,146.5 C 116.13,149.267 114.796,151.267 112.5,152.5C 113.34,150.147 114.674,148.147 116.5,146.5 Z"/></g>
<g><path style="opacity:0.98" fill="#475273" d="M 142.5,156.5 C 140.547,160.12 137.881,163.12 134.5,165.5C 134.5,163.5 134.5,161.5 134.5,159.5C 137.588,159.803 139.254,158.47 139.5,155.5C 140.791,155.263 141.791,155.596 142.5,156.5 Z"/></g>
<g><path style="opacity:0.62" fill="#626981" d="M 387.5,153.5 C 389.326,155.147 390.66,157.147 391.5,159.5C 389.178,158.198 387.845,156.198 387.5,153.5 Z"/></g>
<g><path style="opacity:0.145" fill="#acb0c5" d="M 391.5,159.5 C 392.906,159.973 393.573,160.973 393.5,162.5C 392.094,162.027 391.427,161.027 391.5,159.5 Z"/></g>
<g><path style="opacity:0.059" fill="#c0c9da" d="M 103.5,166.5 C 103.573,168.027 102.906,169.027 101.5,169.5C 101.427,167.973 102.094,166.973 103.5,166.5 Z"/></g>
<g><path style="opacity:0.02" fill="#bbc0c7" d="M 368.5,171.5 C 369.906,171.973 370.573,172.973 370.5,174.5C 369.094,174.027 368.427,173.027 368.5,171.5 Z"/></g>
<g><path style="opacity:1" fill="#353f67" d="M 112.5,152.5 C 108.242,162.597 103.742,172.597 99,182.5C 96.7226,186.08 94.2226,189.414 91.5,192.5C 94.0278,184.448 97.3612,176.781 101.5,169.5C 102.906,169.027 103.573,168.027 103.5,166.5C 105.772,161.324 108.772,156.658 112.5,152.5 Z"/></g>
<g><path style="opacity:1" fill="#303e6a" d="M 396.5,167.5 C 401.595,176.358 405.595,185.691 408.5,195.5C 406.976,194.826 405.642,193.826 404.5,192.5C 403.833,193.5 403.167,194.5 402.5,195.5C 401.246,193.741 401.579,192.241 403.5,191C 401.431,185.55 399.598,180.05 398,174.5C 396.927,175.28 395.76,175.113 394.5,174C 396.25,172.246 396.917,170.079 396.5,167.5 Z"/></g>
<g><path style="opacity:0.078" fill="#b3bbc5" d="M 117.5,191.5 C 117.34,193.153 116.674,194.486 115.5,195.5C 115.229,193.62 115.896,192.287 117.5,191.5 Z"/></g>
<g><path style="opacity:1" fill="#323f6b" d="M 363.5,165.5 C 368.94,166.105 371.773,169.105 372,174.5C 376.967,179.069 380.467,184.569 382.5,191C 384.263,192.564 386.263,193.731 388.5,194.5C 390.415,192.528 392.749,191.528 395.5,191.5C 395.649,192.552 395.483,193.552 395,194.5C 392.571,195.029 390.738,196.363 389.5,198.5C 386.92,199.549 384.254,200.216 381.5,200.5C 382.429,199.685 383.429,198.852 384.5,198C 380.2,189.891 375.533,182.058 370.5,174.5C 370.573,172.973 369.906,171.973 368.5,171.5C 366.367,169.909 364.701,167.909 363.5,165.5 Z"/></g>
<g><path style="opacity:0.988" fill="#5b6185" d="M 91.5,192.5 C 91.8064,195.385 91.4731,198.052 90.5,200.5C 89.3127,202.072 88.3127,203.739 87.5,205.5C 88.0569,200.835 89.3902,196.502 91.5,192.5 Z"/></g>
<g><path style="opacity:0.741" fill="#62697d" d="M 113.5,198.5 C 113.598,200.553 112.931,202.22 111.5,203.5C 111.5,202.5 111.5,201.5 111.5,200.5C 111.5,199.167 112.167,198.5 113.5,198.5 Z"/></g>
<g><path style="opacity:1" fill="#1c2f66" d="M 408.5,195.5 C 411.076,200.446 412.742,205.779 413.5,211.5C 413.5,213.833 413.5,216.167 413.5,218.5C 416.167,218.5 418.833,218.5 421.5,218.5C 423.738,223.215 425.405,228.215 426.5,233.5C 426.12,235.698 426.787,237.365 428.5,238.5C 429.807,241.725 430.807,245.059 431.5,248.5C 431.5,250.167 431.5,251.833 431.5,253.5C 432.5,253.5 433.5,253.5 434.5,253.5C 434.5,251.833 434.5,250.167 434.5,248.5C 437.927,244.579 439.26,239.913 438.5,234.5C 438.41,231.848 439.076,229.515 440.5,227.5C 442.04,225.162 442.706,222.495 442.5,219.5C 447.396,217.554 452.729,216.887 458.5,217.5C 458.543,220.91 458.043,224.243 457,227.5C 452.192,242.105 447.692,256.772 443.5,271.5C 442.691,272.469 441.691,273.302 440.5,274C 440.833,274.333 441.167,274.667 441.5,275C 436.5,275.667 431.5,275.667 426.5,275C 427.151,273.692 426.485,272.859 424.5,272.5C 423.25,269.994 422.584,267.327 422.5,264.5C 421.763,261.762 421.763,259.095 422.5,256.5C 420.12,252.406 418.287,248.073 417,243.5C 416,242.833 415,242.167 414,241.5C 412.684,244.688 412.184,248.022 412.5,251.5C 412.5,252.5 412.5,253.5 412.5,254.5C 410.468,255.048 409.468,256.381 409.5,258.5C 408.178,258.33 407.011,258.663 406,259.5C 407.751,265.328 406.585,270.495 402.5,275C 398.5,275.667 394.5,275.667 390.5,275C 389.309,274.302 388.309,273.469 387.5,272.5C 383.347,258.888 379.347,245.221 375.5,231.5C 375.826,227.116 375.492,222.783 374.5,218.5C 371.966,217.212 369.466,217.212 367,218.5C 366.501,222.486 366.334,226.486 366.5,230.5C 361.103,230.785 355.77,230.451 350.5,229.5C 348.815,233.655 348.149,237.988 348.5,242.5C 354.484,241.926 360.484,241.593 366.5,241.5C 366.5,245.5 366.5,249.5 366.5,253.5C 360.974,253.179 355.64,253.512 350.5,254.5C 349.235,255.514 348.569,257.014 348.5,259C 348.34,261.47 349.007,263.636 350.5,265.5C 355.77,264.549 361.103,264.215 366.5,264.5C 366.5,267.833 366.5,271.167 366.5,274.5C 356.5,274.5 346.5,274.5 336.5,274.5C 336.333,260.163 336.5,245.829 337,231.5C 338.344,228.502 338.511,225.502 337.5,222.5C 341.364,221.05 341.364,219.55 337.5,218C 345.109,214.18 353.109,211.68 361.5,210.5C 362.524,209.148 363.524,207.815 364.5,206.5C 365.167,206.5 365.833,206.5 366.5,206.5C 370.764,206.523 374.431,205.19 377.5,202.5C 378.514,201.326 379.847,200.66 381.5,200.5C 380.699,202.042 380.366,203.708 380.5,205.5C 382.582,205.472 384.416,206.139 386,207.5C 386.617,206.551 386.451,205.718 385.5,205C 389.995,202.827 391.329,204.16 389.5,209C 387.899,209.273 386.399,209.773 385,210.5C 381.143,210.214 376.643,210.214 371.5,210.5C 374.628,211.309 377.294,212.809 379.5,215C 381.433,215.251 383.266,215.751 385,216.5C 386.714,215.075 388.047,215.408 389,217.5C 396.197,217.484 403.363,217.484 410.5,217.5C 410.833,216.667 411.167,215.833 411.5,215C 409.881,208.6 408.881,202.1 408.5,195.5 Z M 388.5,220.5 C 394.833,220.5 401.167,220.5 407.5,220.5C 407.167,222.5 406.833,224.5 406.5,226.5C 403.453,234.643 400.786,242.976 398.5,251.5C 397.833,250.833 397.167,250.167 396.5,249.5C 396.279,246.933 395.612,244.599 394.5,242.5C 393.962,240.883 393.629,239.216 393.5,237.5C 392.408,232.987 391.074,228.654 389.5,224.5C 389.567,223.041 389.234,221.708 388.5,220.5 Z"/></g>
<g><path style="opacity:0.78" fill="#5c6483" d="M 377.5,202.5 C 374.431,205.19 370.764,206.523 366.5,206.5C 369.968,204.713 373.635,203.38 377.5,202.5 Z"/></g>
<g><path style="opacity:0.286" fill="#8d93a8" d="M 358.5,208.5 C 356.562,210.163 354.228,210.829 351.5,210.5C 353.599,209.388 355.933,208.721 358.5,208.5 Z"/></g>
<g><path style="opacity:0.49" fill="#76809b" d="M 343.5,212.5 C 341.162,214.04 338.495,214.706 335.5,214.5C 337.905,213.232 340.572,212.565 343.5,212.5 Z"/></g>
<g><path style="opacity:0.733" fill="#6f7796" d="M 334.5,214.5 C 330.817,216.25 326.817,216.917 322.5,216.5C 326.316,215.518 330.316,214.851 334.5,214.5 Z"/></g>
<g><path style="opacity:0.024" fill="#babecd" d="M 413.5,211.5 C 414.461,213.265 414.795,215.265 414.5,217.5C 417.059,217.198 419.393,217.532 421.5,218.5C 418.833,218.5 416.167,218.5 413.5,218.5C 413.5,216.167 413.5,213.833 413.5,211.5 Z"/></g>
<g><path style="opacity:0.011" fill="#fcfdfe" d="M 204.5,218.5 C 205.167,225.167 205.833,231.833 206.5,238.5C 206.158,239.338 205.492,239.672 204.5,239.5C 204.5,232.5 204.5,225.5 204.5,218.5 Z"/></g>
<g><path style="opacity:0.388" fill="#9c9eaa" d="M 286.5,218.5 C 291.65,217.349 296.984,217.183 302.5,218C 303.341,219.996 303.008,221.829 301.5,223.5C 301.714,221.856 301.38,220.356 300.5,219C 295.845,218.501 291.179,218.334 286.5,218.5 Z"/></g>
<g><path style="opacity:1" fill="#2c375f" d="M 364.5,206.5 C 363.524,207.815 362.524,209.148 361.5,210.5C 353.109,211.68 345.109,214.18 337.5,218C 341.364,219.55 341.364,221.05 337.5,222.5C 338.511,225.502 338.344,228.502 337,231.5C 336.5,245.829 336.333,260.163 336.5,274.5C 346.5,274.5 356.5,274.5 366.5,274.5C 366.5,271.167 366.5,267.833 366.5,264.5C 361.103,264.215 355.77,264.549 350.5,265.5C 349.007,263.636 348.34,261.47 348.5,259C 348.569,257.014 349.235,255.514 350.5,254.5C 350.5,257.167 350.5,259.833 350.5,262.5C 356.167,262.5 361.833,262.5 367.5,262.5C 367.5,266.833 367.5,271.167 367.5,275.5C 356.833,275.5 346.167,275.5 335.5,275.5C 335.5,256.833 335.5,238.167 335.5,219.5C 331.629,219.185 327.962,219.518 324.5,220.5C 323.503,238.659 323.17,256.992 323.5,275.5C 318.5,275.5 313.5,275.5 308.5,275.5C 307.338,256.671 307.171,237.671 308,218.5C 312.763,217.606 317.597,216.939 322.5,216.5C 326.817,216.917 330.817,216.25 334.5,214.5C 334.833,214.5 335.167,214.5 335.5,214.5C 338.495,214.706 341.162,214.04 343.5,212.5C 345.961,211.469 348.627,210.802 351.5,210.5C 354.228,210.829 356.562,210.163 358.5,208.5C 360.421,207.637 362.421,206.971 364.5,206.5 Z"/></g>
<g><path style="opacity:0.114" fill="#656b88" d="M 388.5,220.5 C 394.979,219.509 401.646,219.176 408.5,219.5C 409.01,222.388 408.344,224.721 406.5,226.5C 406.833,224.5 407.167,222.5 407.5,220.5C 401.167,220.5 394.833,220.5 388.5,220.5 Z"/></g>
<g><path style="opacity:0.965" fill="#585f7d" d="M 264.5,231.5 C 261.989,227.675 259.322,223.841 256.5,220C 252.789,219.175 249.122,219.341 245.5,220.5C 246.374,222.747 246.708,225.08 246.5,227.5C 244.002,224.644 243.002,221.477 243.5,218C 248.833,217.333 254.167,217.333 259.5,218C 261.664,222.326 263.331,226.826 264.5,231.5 Z"/></g>
<g><path style="opacity:0.122" fill="#848ca0" d="M 189.5,218.5 C 189.5,237.5 189.5,256.5 189.5,275.5C 194.5,275.5 199.5,275.5 204.5,275.5C 199.36,276.488 194.026,276.821 188.5,276.5C 188.17,256.993 188.503,237.659 189.5,218.5 Z"/></g>
<g><path style="opacity:1" fill="#38426e" d="M 234.5,226.5 C 233.5,226.5 232.5,226.5 231.5,226.5C 231.5,227.833 231.5,229.167 231.5,230.5C 227.53,235.476 223.53,240.476 219.5,245.5C 218.282,247.332 218.949,248.332 221.5,248.5C 222.167,249.5 222.833,250.5 223.5,251.5C 223.427,253.027 224.094,254.027 225.5,254.5C 225.833,255.5 226.5,256.167 227.5,256.5C 229.262,257.262 230.262,258.596 230.5,260.5C 229.448,260.649 228.448,260.483 227.5,260C 224.442,256.035 221.276,252.201 218,248.5C 217.186,246.098 217.353,243.765 218.5,241.5C 219.524,240.147 220.857,239.48 222.5,239.5C 225.095,235.963 227.429,232.13 229.5,228C 229.167,227.5 228.833,227 228.5,226.5C 227.549,227.326 226.549,227.492 225.5,227C 227.019,225.649 228.352,224.149 229.5,222.5C 227.833,221.167 226.167,221.167 224.5,222.5C 226.85,223.774 226.683,225.107 224,226.5C 223.506,224.866 223.34,223.199 223.5,221.5C 222.5,221.5 221.5,221.5 220.5,221.5C 221.575,225.938 219.908,227.938 215.5,227.5C 215.047,231.954 212.713,234.954 208.5,236.5C 212.009,229.978 216.342,223.978 221.5,218.5C 227.798,217.504 234.132,217.17 240.5,217.5C 239.754,221.323 237.754,224.323 234.5,226.5 Z"/></g>
<g><path style="opacity:1" fill="#182e65" d="M 319.5,218.5 C 320.5,218.5 321.5,218.5 322.5,218.5C 322.5,236.833 322.5,255.167 322.5,273.5C 318.429,273.766 314.429,273.433 310.5,272.5C 309.334,256.177 309.167,239.844 310,223.5C 310.309,222.234 310.809,221.067 311.5,220C 314.365,219.817 317.031,219.317 319.5,218.5 Z"/></g>
<g><path style="opacity:0.824" fill="#50657b" d="M 234.5,226.5 C 234.262,228.404 233.262,229.738 231.5,230.5C 231.5,229.167 231.5,227.833 231.5,226.5C 232.5,226.5 233.5,226.5 234.5,226.5 Z"/></g>
<g><path style="opacity:0.416" fill="#6e7796" d="M 442.5,219.5 C 442.706,222.495 442.04,225.162 440.5,227.5C 440.565,224.572 441.232,221.905 442.5,219.5 Z"/></g>
<g><path style="opacity:0.353" fill="#8a97ab" d="M 71.5,222.5 C 69.7607,225.243 67.4274,227.243 64.5,228.5C 66.2393,225.757 68.5726,223.757 71.5,222.5 Z"/></g>
<g><path style="opacity:0.969" fill="#666f8a" d="M 163.5,222.5 C 161.952,222.179 161.285,221.179 161.5,219.5C 156.156,219.334 150.823,219.501 145.5,220C 143.473,224.99 141.973,230.157 141,235.5C 138.468,237.91 136.968,240.91 136.5,244.5C 135.817,244.863 135.15,245.196 134.5,245.5C 137.489,236.028 141.156,226.861 145.5,218C 150.833,217.333 156.167,217.333 161.5,218C 162.582,219.33 163.249,220.83 163.5,222.5 Z"/></g>
<g><path style="opacity:0.275" fill="#a3abbf" d="M 115.5,227.5 C 116.906,227.973 117.573,228.973 117.5,230.5C 116.094,230.027 115.427,229.027 115.5,227.5 Z"/></g>
<g><path style="opacity:0.18" fill="#9aa2b4" d="M 301.5,223.5 C 301.065,226.157 300.065,228.491 298.5,230.5C 298.5,229.5 298.5,228.5 298.5,227.5C 299.143,225.924 300.143,224.59 301.5,223.5 Z"/></g>
<g><path style="opacity:0.684" fill="#4c5578" d="M 375.5,231.5 C 373.682,228.156 372.682,224.489 372.5,220.5C 371.167,220.5 369.833,220.5 368.5,220.5C 368.793,224.437 368.46,228.27 367.5,232C 361.843,232.499 356.176,232.666 350.5,232.5C 350.5,234.833 350.5,237.167 350.5,239.5C 355.844,239.334 361.177,239.501 366.5,240C 367.469,244.737 367.803,249.57 367.5,254.5C 361.833,254.5 356.167,254.5 350.5,254.5C 355.64,253.512 360.974,253.179 366.5,253.5C 366.5,249.5 366.5,245.5 366.5,241.5C 360.484,241.593 354.484,241.926 348.5,242.5C 348.149,237.988 348.815,233.655 350.5,229.5C 355.77,230.451 361.103,230.785 366.5,230.5C 366.334,226.486 366.501,222.486 367,218.5C 369.466,217.212 371.966,217.212 374.5,218.5C 375.492,222.783 375.826,227.116 375.5,231.5 Z"/></g>
<g><path style="opacity:1" fill="#3b4569" d="M 163.5,222.5 C 166.132,228.341 168.465,234.341 170.5,240.5C 168.896,239.713 168.229,238.38 168.5,236.5C 166.876,236.64 165.71,235.973 165,234.5C 163.734,230.605 163.234,226.605 163.5,222.5 Z"/></g>
<g><path style="opacity:0.11" fill="#b0b5c6" d="M 117.5,230.5 C 118.906,230.973 119.573,231.973 119.5,233.5C 118.094,233.027 117.427,232.027 117.5,230.5 Z"/></g>
<g><path style="opacity:0.918" fill="#4b5374" d="M 298.5,227.5 C 298.5,228.5 298.5,229.5 298.5,230.5C 295.702,238.757 292.369,246.757 288.5,254.5C 288.587,251.402 288.087,251.068 287,253.5C 287.68,251.033 289.014,248.7 291,246.5C 292.44,239.639 294.94,233.306 298.5,227.5 Z"/></g>
<g><path style="opacity:0.165" fill="#72798f" d="M 324.5,220.5 C 327.962,219.518 331.629,219.185 335.5,219.5C 335.5,238.167 335.5,256.833 335.5,275.5C 346.167,275.5 356.833,275.5 367.5,275.5C 367.5,271.167 367.5,266.833 367.5,262.5C 368.486,266.97 368.819,271.637 368.5,276.5C 357.167,276.5 345.833,276.5 334.5,276.5C 334.5,257.833 334.5,239.167 334.5,220.5C 331.167,220.5 327.833,220.5 324.5,220.5 Z"/></g>
<g><path style="opacity:0.671" fill="#5c6581" d="M 389.5,224.5 C 391.074,228.654 392.408,232.987 393.5,237.5C 392.034,236.653 391.2,235.32 391,233.5C 390.304,230.522 389.804,227.522 389.5,224.5 Z"/></g>
<g><path style="opacity:1" fill="#414b6f" d="M 255.5,249.5 C 254.596,248.791 254.263,247.791 254.5,246.5C 254.573,244.973 253.906,243.973 252.5,243.5C 250.292,238.204 248.292,232.87 246.5,227.5C 247.268,226.737 247.768,225.737 248,224.5C 248.236,226.764 248.736,228.931 249.5,231C 249.167,231.333 248.833,231.667 248.5,232C 252.803,233.273 254.137,235.94 252.5,240C 255.028,242.623 256.028,245.79 255.5,249.5 Z"/></g>
<g><path style="opacity:0.082" fill="#adaebf" d="M 62.5,232.5 C 62.573,234.027 61.9063,235.027 60.5,235.5C 60.427,233.973 61.0937,232.973 62.5,232.5 Z"/></g>
<g><path style="opacity:0.475" fill="#97a0b1" d="M 426.5,233.5 C 427.537,234.93 428.204,236.597 428.5,238.5C 426.787,237.365 426.12,235.698 426.5,233.5 Z"/></g>
<g><path style="opacity:1" fill="#1a2e65" d="M 286.5,218.5 C 291.179,218.334 295.845,218.501 300.5,219C 301.38,220.356 301.714,221.856 301.5,223.5C 300.143,224.59 299.143,225.924 298.5,227.5C 294.94,233.306 292.44,239.639 291,246.5C 289.014,248.7 287.68,251.033 287,253.5C 288.087,251.068 288.587,251.402 288.5,254.5C 286.896,255.287 286.229,256.62 286.5,258.5C 285.732,257.737 285.232,256.737 285,255.5C 283.276,261.666 281.11,267.666 278.5,273.5C 275.554,274.655 272.554,274.821 269.5,274C 265.571,270.47 265.571,266.97 269.5,263.5C 269.167,262.833 268.833,262.167 268.5,261.5C 267.167,262.5 265.833,263.5 264.5,264.5C 263.914,264.291 263.414,263.957 263,263.5C 262.46,260.581 262.793,257.914 264,255.5C 261.91,256.791 260.576,256.124 260,253.5C 259.289,255.367 259.789,256.867 261.5,258C 260.423,258.47 259.423,258.303 258.5,257.5C 258.5,257.167 258.5,256.833 258.5,256.5C 258.614,253.784 257.614,251.784 255.5,250.5C 255.5,250.167 255.5,249.833 255.5,249.5C 256.028,245.79 255.028,242.623 252.5,240C 254.137,235.94 252.803,233.273 248.5,232C 248.833,231.667 249.167,231.333 249.5,231C 248.736,228.931 248.236,226.764 248,224.5C 247.768,225.737 247.268,226.737 246.5,227.5C 246.708,225.08 246.374,222.747 245.5,220.5C 249.122,219.341 252.789,219.175 256.5,220C 259.322,223.841 261.989,227.675 264.5,231.5C 267.266,236.117 269.266,241.117 270.5,246.5C 270.162,249.157 270.829,251.49 272.5,253.5C 274.333,251.167 276.167,248.833 278,246.5C 279.127,243.623 279.794,240.623 280,237.5C 282.251,234.983 283.084,231.983 282.5,228.5C 284.38,226.245 285.38,223.578 285.5,220.5C 285.833,219.833 286.167,219.167 286.5,218.5 Z"/></g>
<g><path style="opacity:0.325" fill="#787e97" d="M 285.5,220.5 C 285.38,223.578 284.38,226.245 282.5,228.5C 282.62,225.422 283.62,222.755 285.5,220.5 Z"/></g>
<g><path style="opacity:1" fill="#3a446b" d="M 100.5,235.5 C 102.827,235.247 104.827,235.914 106.5,237.5C 107.624,243.448 107.79,249.448 107,255.5C 104.525,256.986 102.025,258.319 99.5,259.5C 107.129,251.856 107.462,243.856 100.5,235.5 Z"/></g>
<g><path style="opacity:0.976" fill="#50597c" d="M 438.5,234.5 C 439.26,239.913 437.927,244.579 434.5,248.5C 435.261,243.563 436.595,238.897 438.5,234.5 Z"/></g>
<g><path style="opacity:1" fill="#37416a" d="M 111.5,200.5 C 111.5,201.5 111.5,202.5 111.5,203.5C 109.684,208.421 108.018,213.421 106.5,218.5C 109.684,221.27 112.684,224.27 115.5,227.5C 115.427,229.027 116.094,230.027 117.5,230.5C 117.427,232.027 118.094,233.027 119.5,233.5C 124.934,243.426 124.6,253.092 118.5,262.5C 119.588,253.829 119.588,245.162 118.5,236.5C 116.953,235.232 115.953,233.565 115.5,231.5C 113.253,230.755 111.42,229.422 110,227.5C 108.86,229.078 108.36,230.744 108.5,232.5C 107.533,228.882 106.7,225.549 106,222.5C 105.404,217.12 105.738,211.787 107,206.5C 107.624,203.726 109.124,201.726 111.5,200.5 Z"/></g>
<g><path style="opacity:0.86" fill="#2d345a" d="M 204.5,218.5 C 204.5,225.5 204.5,232.5 204.5,239.5C 203.509,233.021 203.176,226.354 203.5,219.5C 199.003,218.945 194.836,219.611 191,221.5C 190.5,239.164 190.333,256.83 190.5,274.5C 194.226,274.823 197.893,274.489 201.5,273.5C 202,272.5 202.5,271.5 203,270.5C 203.173,264.984 203.673,259.651 204.5,254.5C 204.5,261.5 204.5,268.5 204.5,275.5C 199.5,275.5 194.5,275.5 189.5,275.5C 189.5,256.5 189.5,237.5 189.5,218.5C 194.5,217.167 199.5,217.167 204.5,218.5 Z"/></g>
<g><path style="opacity:0.127" fill="#8c94a9" d="M 60.5,236.5 C 59.6803,242.797 59.347,249.131 59.5,255.5C 58.8359,253.022 58.5025,250.355 58.5,247.5C 58.2942,243.531 58.9608,239.865 60.5,236.5 Z"/></g>
<g><path style="opacity:0.988" fill="#384369" d="M 422.5,264.5 C 419.731,259.199 417.731,253.532 416.5,247.5C 415.968,244.54 415.301,244.207 414.5,246.5C 414.88,248.698 414.213,250.365 412.5,251.5C 412.184,248.022 412.684,244.688 414,241.5C 415,242.167 416,242.833 417,243.5C 418.287,248.073 420.12,252.406 422.5,256.5C 421.763,259.095 421.763,261.762 422.5,264.5 Z"/></g>
<g><path style="opacity:1" fill="#1c2f65" d="M 163.5,222.5 C 163.234,226.605 163.734,230.605 165,234.5C 165.71,235.973 166.876,236.64 168.5,236.5C 168.229,238.38 168.896,239.713 170.5,240.5C 170.337,242.857 170.503,245.19 171,247.5C 171.417,248.756 172.25,249.423 173.5,249.5C 174.338,249.842 174.672,250.508 174.5,251.5C 174.235,255.653 175.569,258.987 178.5,261.5C 178.259,263.898 178.926,265.898 180.5,267.5C 182.081,269.142 182.747,271.142 182.5,273.5C 180.429,274.809 177.929,275.475 175,275.5C 172.071,275.475 169.571,274.809 167.5,273.5C 167.5,270.833 167.5,268.167 167.5,265.5C 159.16,265.334 150.827,265.5 142.5,266C 140.614,268.543 139.281,271.377 138.5,274.5C 134.5,274.5 130.5,274.5 126.5,274.5C 126.758,269.188 128.425,264.354 131.5,260C 131.352,258.744 131.018,257.577 130.5,256.5C 131.605,252.648 132.938,248.982 134.5,245.5C 135.15,245.196 135.817,244.863 136.5,244.5C 136.968,240.91 138.468,237.91 141,235.5C 141.973,230.157 143.473,224.99 145.5,220C 150.823,219.501 156.156,219.334 161.5,219.5C 161.285,221.179 161.952,222.179 163.5,222.5 Z M 158.5,252.5 C 157.036,253.16 155.369,253.493 153.5,253.5C 151.36,253.444 149.694,252.777 148.5,251.5C 150.266,247.715 151.766,243.715 153,239.5C 155.34,243.707 157.174,248.041 158.5,252.5 Z"/></g>
<g><path style="opacity:1" fill="#192e65" d="M 204.5,239.5 C 205.492,239.672 206.158,239.338 206.5,238.5C 206.5,237.167 207.167,236.5 208.5,236.5C 212.713,234.954 215.047,231.954 215.5,227.5C 219.908,227.938 221.575,225.938 220.5,221.5C 221.5,221.5 222.5,221.5 223.5,221.5C 223.34,223.199 223.506,224.866 224,226.5C 226.683,225.107 226.85,223.774 224.5,222.5C 226.167,221.167 227.833,221.167 229.5,222.5C 228.352,224.149 227.019,225.649 225.5,227C 226.549,227.492 227.549,227.326 228.5,226.5C 228.833,227 229.167,227.5 229.5,228C 227.429,232.13 225.095,235.963 222.5,239.5C 220.857,239.48 219.524,240.147 218.5,241.5C 217.353,243.765 217.186,246.098 218,248.5C 221.276,252.201 224.442,256.035 227.5,260C 228.448,260.483 229.448,260.649 230.5,260.5C 231.5,260.833 232.167,261.5 232.5,262.5C 233.079,266.361 235.079,269.027 238.5,270.5C 238.286,272.144 238.62,273.644 239.5,275C 233.843,275.499 228.176,275.666 222.5,275.5C 220.453,273.45 218.786,271.117 217.5,268.5C 216.631,266.283 216.298,263.95 216.5,261.5C 212.741,261.534 210.741,260.034 210.5,257C 209.552,256.517 208.552,256.351 207.5,256.5C 207.167,255.833 206.833,255.167 206.5,254.5C 205.452,252.067 204.786,252.067 204.5,254.5C 203.673,259.651 203.173,264.984 203,270.5C 202.5,271.5 202,272.5 201.5,273.5C 197.893,274.489 194.226,274.823 190.5,274.5C 190.333,256.83 190.5,239.164 191,221.5C 194.836,219.611 199.003,218.945 203.5,219.5C 203.176,226.354 203.509,233.021 204.5,239.5 Z"/></g>
<g><path style="opacity:0.043" fill="#b7baca" d="M 252.5,243.5 C 253.906,243.973 254.573,244.973 254.5,246.5C 253.094,246.027 252.427,245.027 252.5,243.5 Z"/></g>
<g><path style="opacity:0.008" fill="#d4dae7" d="M 416.5,247.5 C 415.833,247.167 415.167,246.833 414.5,246.5C 415.301,244.207 415.968,244.54 416.5,247.5 Z"/></g>
<g><path style="opacity:0.341" fill="#9ea3ba" d="M 219.5,245.5 C 220.167,246.5 220.833,247.5 221.5,248.5C 218.949,248.332 218.282,247.332 219.5,245.5 Z"/></g>
<g><path style="opacity:1" fill="#3b446a" d="M 282.5,228.5 C 283.084,231.983 282.251,234.983 280,237.5C 279.794,240.623 279.127,243.623 278,246.5C 276.167,248.833 274.333,251.167 272.5,253.5C 270.829,251.49 270.162,249.157 270.5,246.5C 271.966,247.347 272.8,248.68 273,250.5C 276.085,243.059 279.252,235.725 282.5,228.5 Z"/></g>
<g><path style="opacity:0.145" fill="#4f5573" d="M 324.5,220.5 C 324.5,239.167 324.5,257.833 324.5,276.5C 318.974,276.821 313.64,276.488 308.5,275.5C 313.5,275.5 318.5,275.5 323.5,275.5C 323.17,256.992 323.503,238.659 324.5,220.5 Z"/></g>
<g><path style="opacity:0.463" fill="#7d87a4" d="M 394.5,242.5 C 395.612,244.599 396.279,246.933 396.5,249.5C 394.837,247.562 394.171,245.228 394.5,242.5 Z"/></g>
<g><path style="opacity:1" fill="#354068" d="M 406.5,226.5 C 407.863,229.145 407.363,231.478 405,233.5C 404.912,238.65 404.079,243.65 402.5,248.5C 401.151,249.909 399.818,251.243 398.5,252.5C 398.5,252.167 398.5,251.833 398.5,251.5C 400.786,242.976 403.453,234.643 406.5,226.5 Z"/></g>
<g><path style="opacity:0.98" fill="#525d7d" d="M 170.5,240.5 C 172.072,243.215 173.072,246.215 173.5,249.5C 172.25,249.423 171.417,248.756 171,247.5C 170.503,245.19 170.337,242.857 170.5,240.5 Z"/></g>
<g><path style="opacity:0.592" fill="#8290a7" d="M 255.5,250.5 C 257.614,251.784 258.614,253.784 258.5,256.5C 257.13,254.75 256.13,252.75 255.5,250.5 Z"/></g>
<g><path style="opacity:0.239" fill="#919fc0" d="M 396.5,249.5 C 397.167,250.167 397.833,250.833 398.5,251.5C 398.5,251.833 398.5,252.167 398.5,252.5C 398.44,253.043 398.107,253.376 397.5,253.5C 396.571,252.311 396.238,250.978 396.5,249.5 Z"/></g>
<g><path style="opacity:0.376" fill="#777ea0" d="M 431.5,248.5 C 432.29,249.609 432.79,250.942 433,252.5C 433.21,250.942 433.71,249.609 434.5,248.5C 434.5,250.167 434.5,251.833 434.5,253.5C 433.5,253.5 432.5,253.5 431.5,253.5C 431.5,251.833 431.5,250.167 431.5,248.5 Z"/></g>
<g><path style="opacity:0.016" fill="#a4adb4" d="M 148.5,251.5 C 149.694,252.777 151.36,253.444 153.5,253.5C 155.369,253.493 157.036,253.16 158.5,252.5C 159.043,252.56 159.376,252.893 159.5,253.5C 155.555,254.491 151.555,254.824 147.5,254.5C 147.263,253.209 147.596,252.209 148.5,251.5 Z"/></g>
<g><path style="opacity:0.009" fill="#f7f8fb" d="M 206.5,254.5 C 205.833,261.5 205.167,268.5 204.5,275.5C 204.5,268.5 204.5,261.5 204.5,254.5C 204.786,252.067 205.452,252.067 206.5,254.5 Z"/></g>
<g><path style="opacity:0.204" fill="#a0a3b2" d="M 223.5,251.5 C 224.906,251.973 225.573,252.973 225.5,254.5C 224.094,254.027 223.427,253.027 223.5,251.5 Z"/></g>
<g><path style="opacity:0.004" fill="#d2d6e3" d="M 225.5,254.5 C 226.833,254.5 227.5,255.167 227.5,256.5C 226.5,256.167 225.833,255.5 225.5,254.5 Z"/></g>
<g><path style="opacity:0.22" fill="#868ca3" d="M 288.5,254.5 C 288.34,256.153 287.674,257.486 286.5,258.5C 286.229,256.62 286.896,255.287 288.5,254.5 Z"/></g>
<g><path style="opacity:0.008" fill="#878c99" d="M 77.5,255.5 C 78.8333,256.167 79.8333,257.167 80.5,258.5C 78.5,258.5 77.5,257.5 77.5,255.5 Z"/></g>
<g><path style="opacity:0.992" fill="#374168" d="M 100.5,235.5 C 97.4199,233.893 94.0866,232.893 90.5,232.5C 77.3193,235.039 72.986,242.706 77.5,255.5C 77.5,257.5 78.5,258.5 80.5,258.5C 81.5,259.167 82.5,259.833 83.5,260.5C 84.287,262.104 85.6203,262.771 87.5,262.5C 91.3309,262.584 94.9975,261.917 98.5,260.5C 98.5858,261.496 98.2524,262.329 97.5,263C 92.8333,263.667 88.1667,263.667 83.5,263C 80.9211,261.533 78.2544,260.366 75.5,259.5C 73.7331,253.05 73.0664,246.383 73.5,239.5C 74.5,239.5 75.5,239.5 76.5,239.5C 76.5,237.833 76.5,236.167 76.5,234.5C 77.8221,234.33 78.9887,234.663 80,235.5C 80.4828,234.552 80.6495,233.552 80.5,232.5C 86.0368,230.709 91.7035,230.209 97.5,231C 98.8825,232.271 99.8825,233.771 100.5,235.5 Z"/></g>
<g><path style="opacity:1" fill="#474f71" d="M 412.5,254.5 C 410.214,261.815 407.547,268.982 404.5,276C 399.167,276.667 393.833,276.667 388.5,276C 387.663,274.989 387.33,273.822 387.5,272.5C 388.309,273.469 389.309,274.302 390.5,275C 394.5,275.667 398.5,275.667 402.5,275C 406.585,270.495 407.751,265.328 406,259.5C 407.011,258.663 408.178,258.33 409.5,258.5C 409.468,256.381 410.468,255.048 412.5,254.5 Z"/></g>
<g><path style="opacity:1" fill="#253462" d="M 90.5,200.5 C 89.3561,206.449 88.3561,212.449 87.5,218.5C 82.5724,220.543 77.5724,222.376 72.5,224C 70.5132,227.111 68.8466,230.278 67.5,233.5C 69.143,233.48 70.4763,234.147 71.5,235.5C 72.6069,237.769 71.7735,239.102 69,239.5C 66.6813,238.129 64.1813,237.462 61.5,237.5C 61.3338,243.509 61.5005,249.509 62,255.5C 64.1209,261.852 65.6209,261.852 66.5,255.5C 67.5,255.5 68.5,255.5 69.5,255.5C 69.3249,258.329 70.6582,259.996 73.5,260.5C 73.1924,261.308 72.6924,261.975 72,262.5C 69.8773,260.328 67.7106,260.161 65.5,262C 67.2024,264.235 68.2024,266.735 68.5,269.5C 63.6816,266.112 60.6816,261.445 59.5,255.5C 59.347,249.131 59.6803,242.797 60.5,236.5C 60.5,236.167 60.5,235.833 60.5,235.5C 61.9063,235.027 62.573,234.027 62.5,232.5C 62.6596,230.847 63.3263,229.514 64.5,228.5C 67.4274,227.243 69.7607,225.243 71.5,222.5C 75.2231,219.477 79.5564,217.811 84.5,217.5C 85.1316,213.298 86.1316,209.298 87.5,205.5C 88.3127,203.739 89.3127,202.072 90.5,200.5 Z"/></g>
<g><path style="opacity:0.992" fill="#565f7d" d="M 174.5,251.5 C 176.346,254.54 177.679,257.873 178.5,261.5C 175.569,258.987 174.235,255.653 174.5,251.5 Z"/></g>
<g><path style="opacity:0.125" fill="#97abbf" d="M 83.5,260.5 C 85.153,260.66 86.4863,261.326 87.5,262.5C 85.6203,262.771 84.287,262.104 83.5,260.5 Z"/></g>
<g><path style="opacity:1" fill="#535b7e" d="M 207.5,256.5 C 208.552,256.351 209.552,256.517 210.5,257C 210.741,260.034 212.741,261.534 216.5,261.5C 216.298,263.95 216.631,266.283 217.5,268.5C 213.873,264.861 210.539,260.861 207.5,256.5 Z"/></g>
<g><path style="opacity:0.463" fill="#a5a8c0" d="M 178.5,261.5 C 179.738,263.214 180.405,265.214 180.5,267.5C 178.926,265.898 178.259,263.898 178.5,261.5 Z"/></g>
<g><path style="opacity:1" fill="#2f3b66" d="M 286.5,258.5 C 284.753,264.407 282.42,270.073 279.5,275.5C 275.016,276.811 270.683,276.811 266.5,275.5C 266.771,273.62 266.104,272.287 264.5,271.5C 262.485,266.807 260.485,262.141 258.5,257.5C 259.423,258.303 260.423,258.47 261.5,258C 259.789,256.867 259.289,255.367 260,253.5C 260.576,256.124 261.91,256.791 264,255.5C 262.793,257.914 262.46,260.581 263,263.5C 263.414,263.957 263.914,264.291 264.5,264.5C 265.833,263.5 267.167,262.5 268.5,261.5C 268.833,262.167 269.167,262.833 269.5,263.5C 265.571,266.97 265.571,270.47 269.5,274C 272.554,274.821 275.554,274.655 278.5,273.5C 281.11,267.666 283.276,261.666 285,255.5C 285.232,256.737 285.732,257.737 286.5,258.5 Z"/></g>
<g><path style="opacity:0.984" fill="#464f6c" d="M 232.5,262.5 C 235.262,264.596 237.262,267.262 238.5,270.5C 235.079,269.027 233.079,266.361 232.5,262.5 Z"/></g>
<g><path style="opacity:1" fill="#454f74" d="M 118.5,262.5 C 115.347,268.988 110.347,273.321 103.5,275.5C 104.007,274.141 105.007,273.141 106.5,272.5C 107.246,271.264 107.579,269.93 107.5,268.5C 110.95,269.244 112.616,267.91 112.5,264.5C 113.833,264.5 115.167,264.5 116.5,264.5C 116.34,262.801 116.506,261.134 117,259.5C 117.232,260.737 117.732,261.737 118.5,262.5 Z"/></g>
<g><path style="opacity:0.122" fill="#acb4c1" d="M 70.5,271.5 C 72.0269,271.427 73.0269,272.094 73.5,273.5C 71.9731,273.573 70.9731,272.906 70.5,271.5 Z"/></g>
<g><path style="opacity:0.208" fill="#8992a4" d="M 264.5,271.5 C 266.104,272.287 266.771,273.62 266.5,275.5C 265.326,274.486 264.66,273.153 264.5,271.5 Z"/></g>
<g><path style="opacity:0.963" fill="#323b5f" d="M 130.5,256.5 C 131.018,257.577 131.352,258.744 131.5,260C 128.425,264.354 126.758,269.188 126.5,274.5C 130.5,274.5 134.5,274.5 138.5,274.5C 139.281,271.377 140.614,268.543 142.5,266C 150.827,265.5 159.16,265.334 167.5,265.5C 167.5,268.167 167.5,270.833 167.5,273.5C 166.833,273.167 166.167,272.833 165.5,272.5C 164.841,270.862 164.174,269.195 163.5,267.5C 156.833,266.167 150.167,266.167 143.5,267.5C 142.544,269.075 141.877,270.742 141.5,272.5C 138.857,274.613 135.691,275.613 132,275.5C 129.071,275.475 126.571,274.809 124.5,273.5C 125.691,267.472 127.691,261.805 130.5,256.5 Z"/></g>
<g><path style="opacity:0.188" fill="#717790" d="M 141.5,272.5 C 141.461,273.583 141.127,274.583 140.5,275.5C 134.872,276.495 129.206,276.829 123.5,276.5C 123.263,275.209 123.596,274.209 124.5,273.5C 126.571,274.809 129.071,275.475 132,275.5C 135.691,275.613 138.857,274.613 141.5,272.5 Z"/></g>
<g><path style="opacity:0.196" fill="#6f778f" d="M 165.5,272.5 C 166.167,272.833 166.833,273.167 167.5,273.5C 169.571,274.809 172.071,275.475 175,275.5C 177.929,275.475 180.429,274.809 182.5,273.5C 183.404,274.209 183.737,275.209 183.5,276.5C 177.794,276.829 172.128,276.495 166.5,275.5C 165.873,274.583 165.539,273.583 165.5,272.5 Z"/></g>
<g><path style="opacity:0.21" fill="#5c667b" d="M 238.5,270.5 C 241.044,271.708 242.378,273.708 242.5,276.5C 235.646,276.824 228.979,276.491 222.5,275.5C 228.176,275.666 233.843,275.499 239.5,275C 238.62,273.644 238.286,272.144 238.5,270.5 Z"/></g>
<g><path style="opacity:0.204" fill="#6c758d" d="M 443.5,271.5 C 443.579,272.93 443.246,274.264 442.5,275.5C 436.833,276.833 431.167,276.833 425.5,275.5C 424.873,274.583 424.539,273.583 424.5,272.5C 426.485,272.859 427.151,273.692 426.5,275C 431.5,275.667 436.5,275.667 441.5,275C 441.167,274.667 440.833,274.333 440.5,274C 441.691,273.302 442.691,272.469 443.5,271.5 Z"/></g>
<g><path style="opacity:0.094" fill="#a9afcd" d="M 81.5,276.5 C 82.791,276.263 83.791,276.596 84.5,277.5C 84.5,278.167 84.5,278.833 84.5,279.5C 83.5,278.5 82.5,277.5 81.5,276.5 Z"/></g>
<g><path style="opacity:1" fill="#3a436b" d="M 103.5,275.5 C 102.737,276.268 101.737,276.768 100.5,277C 101.227,279.124 101.894,281.291 102.5,283.5C 96.9797,285.398 91.313,286.231 85.5,286C 84.5769,283.959 84.2436,281.792 84.5,279.5C 84.5,278.833 84.5,278.167 84.5,277.5C 89.4222,277.072 93.9222,277.072 98,277.5C 99.4007,275.808 101.234,275.141 103.5,275.5 Z"/></g>
<g><path style="opacity:0.773" fill="#626677" d="M 451.5,290.5 C 451.5,289.5 451.5,288.5 451.5,287.5C 449.833,287.5 448.167,287.5 446.5,287.5C 449.287,285.747 452.287,285.414 455.5,286.5C 455.035,288.808 453.701,290.142 451.5,290.5 Z"/></g>
<g><path style="opacity:1" fill="#545164" d="M 105.5,287.5 C 104.791,288.404 103.791,288.737 102.5,288.5C 102.5,289.5 102.5,290.5 102.5,291.5C 108.126,291.412 113.626,292.745 119,295.5C 119.561,294.978 120.228,294.645 121,294.5C 125.272,296.058 129.439,297.725 133.5,299.5C 133.351,300.552 133.517,301.552 134,302.5C 135.518,303.163 136.685,304.163 137.5,305.5C 128.999,306.089 121.332,303.922 114.5,299C 108.608,297.355 102.608,296.355 96.5,296C 96.8333,295.667 97.1667,295.333 97.5,295C 92.6135,295.13 88.1135,293.964 84,291.5C 81.8215,292.84 81.3215,292.507 82.5,290.5C 90.0982,289.04 97.7649,288.04 105.5,287.5 Z"/></g>
<g><path style="opacity:1" fill="#444969" d="M 212.5,290.5 C 194.985,289.147 177.318,288.481 159.5,288.5C 150.978,287.4 142.312,287.567 133.5,289C 132.692,289.308 132.025,289.808 131.5,290.5C 137.335,296.332 144.002,300.998 151.5,304.5C 153.529,303.371 153.863,303.871 152.5,306C 154.355,306.422 156.189,306.922 158,307.5C 159.03,307.836 159.53,308.503 159.5,309.5C 155.629,309.815 151.962,309.482 148.5,308.5C 144.733,307.903 141.066,306.903 137.5,305.5C 136.685,304.163 135.518,303.163 134,302.5C 133.517,301.552 133.351,300.552 133.5,299.5C 129.439,297.725 125.272,296.058 121,294.5C 120.228,294.645 119.561,294.978 119,295.5C 113.626,292.745 108.126,291.412 102.5,291.5C 102.5,290.5 102.5,289.5 102.5,288.5C 103.791,288.737 104.791,288.404 105.5,287.5C 130.33,286.337 155.33,286.17 180.5,287C 191.346,287.876 202.013,289.042 212.5,290.5 Z"/></g>
<g><path style="opacity:1" fill="#37426e" d="M 159.5,288.5 C 156.813,288.336 154.146,288.503 151.5,289C 151.833,289.333 152.167,289.667 152.5,290C 149.151,290.089 148.651,291.256 151,293.5C 151.308,292.692 151.808,292.025 152.5,291.5C 153.509,294.987 155.842,296.32 159.5,295.5C 160.164,297.867 161.497,299.867 163.5,301.5C 167.427,302.655 171.427,303.488 175.5,304C 172.956,305.092 170.289,305.759 167.5,306C 170.44,307.152 173.44,308.152 176.5,309C 208.393,313.821 240.393,316.988 272.5,318.5C 272.5,318.833 272.5,319.167 272.5,319.5C 234.559,317.583 196.892,314.25 159.5,309.5C 159.53,308.503 159.03,307.836 158,307.5C 156.189,306.922 154.355,306.422 152.5,306C 153.863,303.871 153.529,303.371 151.5,304.5C 144.002,300.998 137.335,296.332 131.5,290.5C 132.025,289.808 132.692,289.308 133.5,289C 142.312,287.567 150.978,287.4 159.5,288.5 Z"/></g>
<g><path style="opacity:0.671" fill="#6a6f88" d="M 434.5,291.5 C 432.162,293.04 429.495,293.706 426.5,293.5C 428.838,291.96 431.505,291.294 434.5,291.5 Z"/></g>
<g><path style="opacity:1" fill="#182e66" d="M 159.5,288.5 C 177.318,288.481 194.985,289.147 212.5,290.5C 216.042,290.187 219.375,290.521 222.5,291.5C 247.35,296.499 272.683,299.166 298.5,299.5C 332.272,304.15 366.272,304.65 400.5,301C 410.78,298.758 421.113,296.924 431.5,295.5C 431.5,296.5 431.5,297.5 431.5,298.5C 429.5,298.5 427.5,298.5 425.5,298.5C 425.5,299.5 425.5,300.5 425.5,301.5C 416.456,301.598 407.79,303.264 399.5,306.5C 398.873,307.417 398.539,308.417 398.5,309.5C 391.506,310 384.506,310.5 377.5,311C 375.048,312.959 372.214,313.792 369,313.5C 362.677,313.955 362.177,312.955 367.5,310.5C 364.572,309.516 361.572,309.183 358.5,309.5C 358.351,310.552 358.517,311.552 359,312.5C 360.183,311.269 361.349,311.269 362.5,312.5C 361.975,313.192 361.308,313.692 360.5,314C 353.424,314.906 346.424,316.072 339.5,317.5C 335.767,316.02 332.101,316.186 328.5,318C 309.836,318.5 291.17,318.667 272.5,318.5C 240.393,316.988 208.393,313.821 176.5,309C 173.44,308.152 170.44,307.152 167.5,306C 170.289,305.759 172.956,305.092 175.5,304C 171.427,303.488 167.427,302.655 163.5,301.5C 161.497,299.867 160.164,297.867 159.5,295.5C 155.842,296.32 153.509,294.987 152.5,291.5C 151.808,292.025 151.308,292.692 151,293.5C 148.651,291.256 149.151,290.089 152.5,290C 152.167,289.667 151.833,289.333 151.5,289C 154.146,288.503 156.813,288.336 159.5,288.5 Z"/></g>
<g><path style="opacity:0.945" fill="#555f7e" d="M 222.5,291.5 C 248.042,293.614 273.375,296.281 298.5,299.5C 272.683,299.166 247.35,296.499 222.5,291.5 Z"/></g>
<g><path style="opacity:0.557" fill="#7f89a5" d="M 412.5,296.5 C 408.817,298.25 404.817,298.917 400.5,298.5C 404.316,297.518 408.316,296.851 412.5,296.5 Z"/></g>
<g><path style="opacity:1" fill="#706469" d="M 82.5,290.5 C 81.3215,292.507 81.8215,292.84 84,291.5C 88.1135,293.964 92.6135,295.13 97.5,295C 97.1667,295.333 96.8333,295.667 96.5,296C 102.608,296.355 108.608,297.355 114.5,299C 121.332,303.922 128.999,306.089 137.5,305.5C 141.066,306.903 144.733,307.903 148.5,308.5C 131.003,307.306 113.67,305.972 96.5,304.5C 98.3885,303.678 100.389,302.845 102.5,302C 90.9406,299.185 79.2739,297.018 67.5,295.5C 69.3596,294.675 71.0262,293.675 72.5,292.5C 75.7611,291.622 79.0945,290.956 82.5,290.5 Z"/></g>
<g><path style="opacity:1" fill="#374168" d="M 446.5,287.5 C 448.167,287.5 449.833,287.5 451.5,287.5C 451.5,288.5 451.5,289.5 451.5,290.5C 434.989,299.784 417.322,306.117 398.5,309.5C 398.539,308.417 398.873,307.417 399.5,306.5C 407.79,303.264 416.456,301.598 425.5,301.5C 425.5,300.5 425.5,299.5 425.5,298.5C 427.5,298.5 429.5,298.5 431.5,298.5C 431.5,297.5 431.5,296.5 431.5,295.5C 421.113,296.924 410.78,298.758 400.5,301C 366.272,304.65 332.272,304.15 298.5,299.5C 332.547,302.401 366.547,302.068 400.5,298.5C 404.817,298.917 408.817,298.25 412.5,296.5C 416.985,295.216 421.651,294.216 426.5,293.5C 429.495,293.706 432.162,293.04 434.5,291.5C 438.215,289.595 442.215,288.262 446.5,287.5 Z"/></g>
<g><path style="opacity:1" fill="#ae937c" d="M 58.5,296.5 C 58.1961,297.15 57.8627,297.817 57.5,298.5C 61.6486,299.358 65.6486,300.525 69.5,302C 67.5,302.333 65.5,302.667 63.5,303C 69.0158,303.173 74.3491,303.673 79.5,304.5C 66.3203,303.912 53.3203,305.079 40.5,308C 38.8333,309.167 37.1667,310.333 35.5,311.5C 34.479,310.998 34.3123,310.332 35,309.5C 41.6614,303.209 49.4947,298.876 58.5,296.5 Z"/></g>
<g><path style="opacity:1" fill="#897267" d="M 72.5,292.5 C 71.0262,293.675 69.3596,294.675 67.5,295.5C 79.2739,297.018 90.9406,299.185 102.5,302C 100.389,302.845 98.3885,303.678 96.5,304.5C 90.8333,304.5 85.1667,304.5 79.5,304.5C 74.3491,303.673 69.0158,303.173 63.5,303C 65.5,302.667 67.5,302.333 69.5,302C 65.6486,300.525 61.6486,299.358 57.5,298.5C 57.8627,297.817 58.1961,297.15 58.5,296.5C 62.9785,294.877 67.6452,293.544 72.5,292.5 Z"/></g>
<g><path style="opacity:1" fill="#a2856e" d="M 116.5,330.5 C 115.624,330.631 114.957,330.298 114.5,329.5C 112.246,326.1 110.746,322.433 110,318.5C 107.597,316.695 105.93,314.362 105,311.5C 103.108,312.13 101.441,313.13 100,314.5C 99.6667,313.833 99.3333,313.167 99,312.5C 97.9681,314.027 96.8014,315.36 95.5,316.5C 93.9423,313.708 92.609,310.708 91.5,307.5C 96.8023,306.337 102.136,306.171 107.5,307C 109.972,315.074 112.972,322.907 116.5,330.5 Z"/></g>
<g><path style="opacity:1" fill="#485179" d="M 398.5,309.5 C 375.721,315.615 352.387,319.115 328.5,320C 309.76,320.819 291.093,320.653 272.5,319.5C 272.5,319.167 272.5,318.833 272.5,318.5C 291.17,318.667 309.836,318.5 328.5,318C 332.101,316.186 335.767,316.02 339.5,317.5C 346.424,316.072 353.424,314.906 360.5,314C 361.308,313.692 361.975,313.192 362.5,312.5C 361.349,311.269 360.183,311.269 359,312.5C 358.517,311.552 358.351,310.552 358.5,309.5C 361.572,309.183 364.572,309.516 367.5,310.5C 362.177,312.955 362.677,313.955 369,313.5C 372.214,313.792 375.048,312.959 377.5,311C 384.506,310.5 391.506,310 398.5,309.5 Z"/></g>
<g><path style="opacity:1" fill="#b88b61" d="M 116.5,330.5 C 118.195,332.897 119.528,335.563 120.5,338.5C 120.796,341.917 121.796,345.084 123.5,348C 122.514,351.247 120.514,352.08 117.5,350.5C 112.262,343.253 107.096,335.253 102,326.5C 101.329,325.748 100.496,325.414 99.5,325.5C 97.8946,322.622 96.5612,319.622 95.5,316.5C 96.8014,315.36 97.9681,314.027 99,312.5C 99.3333,313.167 99.6667,313.833 100,314.5C 101.441,313.13 103.108,312.13 105,311.5C 105.93,314.362 107.597,316.695 110,318.5C 110.746,322.433 112.246,326.1 114.5,329.5C 114.957,330.298 115.624,330.631 116.5,330.5 Z"/></g>
<g><path style="opacity:1" fill="#bd9772" d="M 99.5,325.5 C 100.496,325.414 101.329,325.748 102,326.5C 107.096,335.253 112.262,343.253 117.5,350.5C 120.514,352.08 122.514,351.247 123.5,348C 121.796,345.084 120.796,341.917 120.5,338.5C 127.961,350.408 136.628,361.408 146.5,371.5C 142.595,371.387 139.929,369.554 138.5,366C 135.368,363.918 132.368,361.752 129.5,359.5C 128.5,359.833 127.833,360.5 127.5,361.5C 129.14,364.973 131.64,367.64 135,369.5C 135.483,370.448 135.649,371.448 135.5,372.5C 120.382,359.286 108.382,343.619 99.5,325.5 Z"/></g>
<g><path style="opacity:0.541" fill="#d2b28d" d="M 146.5,371.5 C 152.868,377.87 159.535,383.87 166.5,389.5C 164.407,388.955 162.407,388.122 160.5,387C 158.597,384.595 156.264,382.761 153.5,381.5C 152.034,379.179 150.201,377.179 148,375.5C 147.209,374.255 146.709,372.922 146.5,371.5 Z"/></g>
<g><path style="opacity:1" fill="#dca56d" d="M 146.5,371.5 C 146.709,372.922 147.209,374.255 148,375.5C 150.201,377.179 152.034,379.179 153.5,381.5C 156.264,382.761 158.597,384.595 160.5,387C 162.407,388.122 164.407,388.955 166.5,389.5C 166.833,389.5 167.167,389.5 167.5,389.5C 167.539,390.583 167.873,391.583 168.5,392.5C 171.505,394.537 174.505,396.537 177.5,398.5C 175.674,398.92 173.674,398.92 171.5,398.5C 163.095,394.458 155.095,389.625 147.5,384C 142.998,380.664 138.998,376.831 135.5,372.5C 135.649,371.448 135.483,370.448 135,369.5C 131.64,367.64 129.14,364.973 127.5,361.5C 127.833,360.5 128.5,359.833 129.5,359.5C 132.368,361.752 135.368,363.918 138.5,366C 139.929,369.554 142.595,371.387 146.5,371.5 Z"/></g>
<g><path style="opacity:0.204" fill="#d5bea0" d="M 236.5,399.5 C 238.948,398.527 241.615,398.194 244.5,398.5C 244.946,401.01 244.28,403.01 242.5,404.5C 242.768,402.901 242.434,401.568 241.5,400.5C 240.081,399.549 238.415,399.216 236.5,399.5 Z"/></g>
<g><path style="opacity:0.976" fill="#d9b890" d="M 167.5,389.5 C 171.799,392.988 176.465,395.988 181.5,398.5C 182.328,397.585 183.328,396.919 184.5,396.5C 187.891,397.717 191.224,398.717 194.5,399.5C 192.712,399.215 191.045,399.548 189.5,400.5C 189.863,401.183 190.196,401.85 190.5,402.5C 189.443,403.206 189.776,403.539 191.5,403.5C 191.842,404.338 192.508,404.672 193.5,404.5C 195.273,405.892 197.273,407.059 199.5,408C 200.252,408.671 200.586,409.504 200.5,410.5C 197.71,410.051 195.044,410.051 192.5,410.5C 193.95,411.85 194.617,413.516 194.5,415.5C 193.236,413.73 191.736,412.063 190,410.5C 190.148,409.175 189.982,408.008 189.5,407C 183.319,404.408 177.319,401.575 171.5,398.5C 173.674,398.92 175.674,398.92 177.5,398.5C 174.505,396.537 171.505,394.537 168.5,392.5C 167.873,391.583 167.539,390.583 167.5,389.5 Z"/></g>
<g><path style="opacity:1" fill="#e3a664" d="M 194.5,399.5 C 197.833,399.5 201.167,399.5 204.5,399.5C 206.857,399.337 209.19,399.503 211.5,400C 212.973,400.71 213.64,401.876 213.5,403.5C 206.841,404.783 200.174,404.783 193.5,403.5C 192.833,403.5 192.167,403.5 191.5,403.5C 191.5,402.833 191.167,402.5 190.5,402.5C 190.196,401.85 189.863,401.183 189.5,400.5C 191.045,399.548 192.712,399.215 194.5,399.5 Z"/></g>
<g><path style="opacity:0.774" fill="#deba90" d="M 204.5,399.5 C 207.304,398.362 210.304,398.195 213.5,399C 216.092,401.011 215.925,402.844 213,404.5C 206.53,407.006 200.03,407.006 193.5,404.5C 193.5,404.167 193.5,403.833 193.5,403.5C 200.174,404.783 206.841,404.783 213.5,403.5C 213.64,401.876 212.973,400.71 211.5,400C 209.19,399.503 206.857,399.337 204.5,399.5 Z"/></g>
<g><path style="opacity:1" fill="#eca75d" d="M 241.5,400.5 C 242.434,401.568 242.768,402.901 242.5,404.5C 242.167,404.5 241.833,404.5 241.5,404.5C 237.703,405.296 234.703,407.296 232.5,410.5C 232.833,411.167 233.167,411.833 233.5,412.5C 231.483,413.53 229.483,414.53 227.5,415.5C 223.922,414.229 221.422,412.563 220,410.5C 217.64,411.78 215.14,412.447 212.5,412.5C 212.901,408.93 214.901,406.764 218.5,406C 222.12,404.942 225.787,404.442 229.5,404.5C 228.833,403.5 228.167,402.5 227.5,401.5C 228.167,401.167 228.833,400.833 229.5,400.5C 233.519,401.829 237.519,401.829 241.5,400.5 Z"/></g>
<g><path style="opacity:1" fill="#e3aa6c" d="M 236.5,399.5 C 238.415,399.216 240.081,399.549 241.5,400.5C 237.519,401.829 233.519,401.829 229.5,400.5C 228.833,400.833 228.167,401.167 227.5,401.5C 228.167,402.5 228.833,403.5 229.5,404.5C 225.787,404.442 222.12,404.942 218.5,406C 214.901,406.764 212.901,408.93 212.5,412.5C 215.14,412.447 217.64,411.78 220,410.5C 221.422,412.563 223.922,414.229 227.5,415.5C 229.483,414.53 231.483,413.53 233.5,412.5C 233.167,411.833 232.833,411.167 232.5,410.5C 234.703,407.296 237.703,405.296 241.5,404.5C 239.621,407.115 237.288,409.281 234.5,411C 236.922,411.135 239.255,410.635 241.5,409.5C 241.586,410.496 241.252,411.329 240.5,412C 231.436,414.262 231.436,416.095 240.5,417.5C 240.709,418.086 241.043,418.586 241.5,419C 233.492,420.669 225.492,420.502 217.5,418.5C 214.734,416.822 212.067,415.156 209.5,413.5C 210.067,412.58 209.401,412.246 207.5,412.5C 207.561,410.408 208.561,408.908 210.5,408C 216.965,404.6 223.298,400.933 229.5,397C 232.659,395.916 234.992,396.75 236.5,399.5 Z"/></g>
<g><path style="opacity:1" fill="#eaa75d" d="M 227.5,431.5 C 227.5,432.833 227.5,434.167 227.5,435.5C 227.326,437.861 226.993,440.194 226.5,442.5C 222.337,441.948 219.337,439.948 217.5,436.5C 215.721,434.656 213.388,433.99 210.5,434.5C 210.827,432.512 211.16,430.512 211.5,428.5C 210.345,425.989 209.678,423.322 209.5,420.5C 205.818,420.665 202.152,420.499 198.5,420C 197.123,417.667 196.123,415.167 195.5,412.5C 196.167,412.167 196.833,411.833 197.5,411.5C 200.716,412.795 204.049,413.462 207.5,413.5C 208.167,413.5 208.833,413.5 209.5,413.5C 212.067,415.156 214.734,416.822 217.5,418.5C 225.492,420.502 233.492,420.669 241.5,419C 241.043,418.586 240.709,418.086 240.5,417.5C 231.436,416.095 231.436,414.262 240.5,412C 241.252,411.329 241.586,410.496 241.5,409.5C 244.807,408.949 248.14,408.616 251.5,408.5C 251.753,410.827 251.086,412.827 249.5,414.5C 251.454,417.009 253.62,419.343 256,421.5C 256.483,422.448 256.649,423.448 256.5,424.5C 251.49,424.839 246.823,426.173 242.5,428.5C 243.247,434.067 240.913,435.9 235.5,434C 233.224,431.096 230.558,430.263 227.5,431.5 Z"/></g>
<g><path style="opacity:0.871" fill="#dab07f" d="M 227.5,431.5 C 230.558,430.263 233.224,431.096 235.5,434C 240.913,435.9 243.247,434.067 242.5,428.5C 246.823,426.173 251.49,424.839 256.5,424.5C 256.649,423.448 256.483,422.448 256,421.5C 253.62,419.343 251.454,417.009 249.5,414.5C 251.086,412.827 251.753,410.827 251.5,408.5C 248.14,408.616 244.807,408.949 241.5,409.5C 244.688,406.579 248.355,405.912 252.5,407.5C 253.769,409.695 253.769,411.861 252.5,414C 257.337,413.381 259.003,415.215 257.5,419.5C 259.439,421.122 259.772,422.956 258.5,425C 254.945,425.291 251.945,426.625 249.5,429C 247.866,429.494 246.199,429.66 244.5,429.5C 244.756,431.792 244.423,433.959 243.5,436C 240.5,436.667 237.5,436.667 234.5,436C 232.283,434.277 229.95,432.777 227.5,431.5 Z"/></g>
<g><path style="opacity:0.996" fill="#dfae79" d="M 200.5,410.5 C 202.965,410.767 205.299,411.434 207.5,412.5C 207.5,412.833 207.5,413.167 207.5,413.5C 204.049,413.462 200.716,412.795 197.5,411.5C 196.833,411.833 196.167,412.167 195.5,412.5C 196.123,415.167 197.123,417.667 198.5,420C 202.152,420.499 205.818,420.665 209.5,420.5C 209.678,423.322 210.345,425.989 211.5,428.5C 211.16,430.512 210.827,432.512 210.5,434.5C 213.388,433.99 215.721,434.656 217.5,436.5C 215.516,436.383 213.85,437.05 212.5,438.5C 211.5,437.833 210.5,437.167 209.5,436.5C 207.481,432.075 206.481,427.408 206.5,422.5C 199.833,424.619 195.833,422.286 194.5,415.5C 194.617,413.516 193.95,411.85 192.5,410.5C 195.044,410.051 197.71,410.051 200.5,410.5 Z"/></g>
<g><path style="opacity:1" fill="#dbb385" d="M 227.5,435.5 C 229.502,440.099 228.169,443.432 223.5,445.5C 219.533,443.858 217.533,440.858 217.5,436.5C 219.337,439.948 222.337,441.948 226.5,442.5C 226.993,440.194 227.326,437.861 227.5,435.5 Z"/></g>
</svg>
